<svg width="23" height="23" viewBox="0 0 23 23" fill="none" xmlns="http://www.w3.org/2000/svg">
<g clip-path="url(#clip0_136_136)">
<path d="M11.25 0C5.03437 0 0 5.03437 0 11.25C0 16.2281 3.22031 20.4328 7.69219 21.9234C8.25469 22.0219 8.46562 21.6844 8.46562 21.3891C8.46562 21.1219 8.45156 20.2359 8.45156 19.2937C5.625 19.8141 4.89375 18.6047 4.66875 17.9719C4.54219 17.6484 3.99375 16.65 3.51562 16.3828C3.12187 16.1719 2.55937 15.6516 3.50156 15.6375C4.3875 15.6234 5.02031 16.4531 5.23125 16.7906C6.24375 18.4922 7.86094 18.0141 8.50781 17.7187C8.60625 16.9875 8.90156 16.4953 9.225 16.2141C6.72187 15.9328 4.10625 14.9625 4.10625 10.6594C4.10625 9.43594 4.54219 8.42344 5.25938 7.63594C5.14688 7.35469 4.75312 6.20156 5.37187 4.65469C5.37187 4.65469 6.31406 4.35937 8.46562 5.80781C9.36562 5.55469 10.3219 5.42812 11.2781 5.42812C12.2344 5.42812 13.1906 5.55469 14.0906 5.80781C16.2422 4.34531 17.1844 4.65469 17.1844 4.65469C17.8031 6.20156 17.4094 7.35469 17.2969 7.63594C18.0141 8.42344 18.45 9.42187 18.45 10.6594C18.45 14.9766 15.8203 15.9328 13.3172 16.2141C13.725 16.5656 14.0766 17.2406 14.0766 18.2953C14.0766 19.8 14.0625 21.0094 14.0625 21.3891C14.0625 21.6844 14.2734 22.0359 14.8359 21.9234C17.0696 21.17 19.0106 19.7348 20.3856 17.82C21.7605 15.9052 22.5 13.6073 22.5 11.25C22.5 5.03437 17.4656 0 11.25 0Z" fill="black"/>
</g>
<defs>
<clipPath id="clip0_136_136">
<rect width="22.5" height="22.5" fill="white"/>
</clipPath>
</defs>
</svg>
