<svg width="23" height="23" viewBox="0 0 23 23" fill="none" xmlns="http://www.w3.org/2000/svg">
<g clip-path="url(#clip0_136_134)">
<path d="M0.5 1.61156C0.5 0.721406 1.23969 0 2.15234 0H21.3477C22.2603 0 23 0.721406 23 1.61156V20.8884C23 21.7786 22.2603 22.5 21.3477 22.5H2.15234C1.23969 22.5 0.5 21.7786 0.5 20.8884V1.61156ZM7.45109 18.8353V8.67516H4.07469V18.8353H7.45109ZM5.76359 7.28719C6.94063 7.28719 7.67328 6.50813 7.67328 5.53219C7.65219 4.53516 6.94203 3.77719 5.78609 3.77719C4.63016 3.77719 3.875 4.53656 3.875 5.53219C3.875 6.50813 4.60766 7.28719 5.74109 7.28719H5.76359ZM12.6655 18.8353V13.1611C12.6655 12.8573 12.688 12.5536 12.778 12.337C13.0212 11.7309 13.5767 11.1023 14.5105 11.1023C15.7325 11.1023 16.2205 12.0333 16.2205 13.4002V18.8353H19.5969V13.0078C19.5969 9.88594 17.9319 8.43469 15.71 8.43469C13.9184 8.43469 13.1155 9.41906 12.6655 10.1123V10.1475H12.643L12.6655 10.1123V8.67516H9.29047C9.33266 9.62859 9.29047 18.8353 9.29047 18.8353H12.6655Z" fill="black"/>
</g>
<defs>
<clipPath id="clip0_136_134">
<rect width="22.5" height="22.5" fill="white" transform="translate(0.5)"/>
</clipPath>
</defs>
</svg>
